# xmcd
#
# Track frame offsets:
# 150
# 16810
# 28429
# 39534
# 54412
# 70801
# 86341
# 102366
# 117677
# 128948
# 142603
# 152679
# 167714
# 178272
# 191846
# 205878
# 218787
# 235531
#
# Disc length: 3292 seconds
#
#
# Revision: 0
# Processed by: cddbd v1.5.1PL2 Copyright (c) Steve Scherf et al.
# Submitted via: FreeRIP 2.942 
#
DISCID=fb0cda12
DTITLE=Elkie Brooks - No More The Fool The Collection Disc Two
DYEAR=2005
DGENRE=Pop
TTITLE0=Blues For Mama
TTITLE1=What Kind Of Man Are You
TTITLE2=Baby Get Lost
TTITLE3=Me And My Gin
TTITLE4=All Night Long
TTITLE5=Save Your Love For Me
TTITLE6=Here's That Rainy Day
TTITLE7=Spring Can Really Hang You Up The Most
TTITLE8=Mean And Evil Blues
TTITLE9=Black Coffee
TTITLE10=Bad, Bad Whiskey
TTITLE11=Travellin' Light
TTITLE12=Don't Smoke In Bed
TTITLE13=Hard Times
TTITLE14=Drinking Again
TTITLE15=Ain't No Use
TTITLE16=Fine And Mellow
TTITLE17=I Wonder Who
EXTD=2005
EXTT0=
EXTT1=
EXTT2=
EXTT3=
EXTT4=
EXTT5=
EXTT6=
EXTT7=
EXTT8=
EXTT9=
EXTT10=
EXTT11=
EXTT12=
EXTT13=
EXTT14=
EXTT15=
EXTT16=
EXTT17=
PLAYORDER=
